<?xml version="1.0" standalone="no"?>
<!DOCTYPE svg PUBLIC "-//W3C//DTD SVG 20010904//EN"
 "http://www.w3.org/TR/2001/REC-SVG-20010904/DTD/svg10.dtd">
<svg version="1.0" xmlns="http://www.w3.org/2000/svg"
 width="300.000000pt" height="67.000000pt" viewBox="0 0 300.000000 67.000000"
 preserveAspectRatio="xMidYMid meet">
<metadata>
Created by potrace 1.10, written by Peter Selinger 2001-2011
</metadata>
<g transform="translate(0.000000,67.000000) scale(0.100000,-0.100000)"
fill="#000000" stroke="none">
<path d="M122 588 c-9 -9 -12 -73 -12 -224 0 -212 0 -213 -22 -220 -51 -15
-74 -58 -45 -83 16 -12 959 -18 990 -6 32 13 17 56 -27 81 l-39 22 39 0 c52 0
65 21 63 103 -2 72 4 91 26 83 10 -4 15 -29 17 -92 l3 -87 29 -3 c15 -2 39 -1
52 2 23 6 24 10 24 102 0 141 -30 194 -112 194 -39 0 -41 3 -50 65 -3 16 -12
21 -46 23 -34 3 -45 8 -54 28 l-11 24 -407 0 c-302 0 -409 -3 -418 -12z m815
-12 c4 -8 7 -107 5 -220 l-3 -206 -404 0 -405 0 0 213 c0 118 3 217 7 220 3 4
183 7 399 7 330 0 394 -2 401 -14z m112 -88 c-1 -40 -2 -41 -9 -13 l-8 30 -1
-30 c-1 -16 -4 -48 -7 -70 l-7 -40 24 25 c13 13 24 29 24 35 0 12 49 19 81 11
40 -10 54 -54 54 -166 0 -92 -8 -118 -26 -89 -4 8 -9 8 -17 0 -22 -22 -27 -9
-27 77 0 94 -4 107 -35 115 -19 4 -18 5 2 6 31 1 37 -13 44 -109 l6 -85 1 83
c2 97 -7 122 -46 122 -58 0 -79 -36 -72 -127 l4 -68 6 65 7 65 1 -76 2 -76
-40 0 -40 0 0 178 0 179 40 0 40 0 -1 -42z m-53 -369 c92 -41 68 -44 -454 -47
-465 -2 -492 -1 -492 16 0 10 15 24 38 34 33 15 85 17 450 17 396 1 415 0 458
-20z"/>
<path d="M150 365 l0 -195 243 0 c133 -1 306 -2 385 -3 l142 -2 0 197 0 198
-385 0 -385 0 0 -195z m459 157 c-7 -12 -21 -18 -35 -16 -13 1 -24 -1 -24 -5
0 -19 -77 -31 -201 -31 -183 0 -183 0 -140 -113 18 -47 30 -90 27 -95 -3 -6 1
-17 9 -26 9 -9 18 -25 20 -36 3 -18 -1 -20 -41 -20 -24 0 -45 3 -45 8 -4 21
-5 319 -1 334 4 17 23 18 223 18 211 0 219 -1 208 -18z m191 8 c0 -17 -73 -91
-81 -83 -4 4 -9 27 -11 51 l-4 42 48 0 c27 0 48 -4 48 -10z m-104 -26 c-3 -9
-7 -37 -8 -62 l-1 -47 -6 55 c-5 46 -9 55 -26 55 -19 0 -20 -7 -20 -155 l-1
-155 3 153 c3 126 6 152 18 152 12 0 15 -17 15 -90 l0 -90 83 90 c49 54 90 90
102 90 15 0 9 -11 -31 -52 -84 -89 -83 -76 -12 -167 34 -44 64 -78 66 -76 3 3
-20 36 -101 143 -5 6 -7 12 -4 12 6 0 114 -139 131 -167 11 -19 -76 -12 -91 7
-29 36 -74 100 -70 100 3 0 24 -25 47 -55 24 -31 45 -53 47 -51 3 3 -21 38
-52 79 l-58 75 -28 -33 c-24 -27 -29 -41 -27 -81 l1 -49 7 45 7 45 1 -45 2
-46 -35 0 -35 0 0 168 0 168 41 0 c33 0 40 -3 35 -16z m214 8 c0 -4 -30 -37
-67 -72 l-67 -65 52 58 c29 32 50 63 46 68 -13 21 -43 5 -108 -58 l-69 -68 63
73 c61 68 66 72 107 72 24 0 43 -4 43 -8z m-320 -41 c0 -5 -16 -15 -35 -22
-31 -11 -37 -21 -57 -78 -13 -37 -23 -79 -23 -96 0 -24 -4 -30 -20 -29 -15 0
-20 -6 -20 -25 0 -19 -5 -26 -20 -26 -15 0 -20 6 -18 25 1 22 -3 25 -33 25
-29 0 -32 -3 -28 -22 7 -27 -19 -41 -41 -23 -11 9 -12 17 -4 32 9 17 8 19 -9
14 -11 -4 -23 -2 -27 4 -4 7 29 10 99 10 103 0 106 1 106 23 0 12 11 56 24 97
20 62 29 77 53 87 34 15 53 16 53 4z m308 -166 c-3 -54 -4 -56 -20 -38 -37 38
-68 81 -68 95 0 7 19 33 43 57 l42 44 3 -51 c2 -28 2 -77 0 -107z m-409 127
c0 -4 -12 -41 -27 -82 l-27 -75 -83 0 -84 0 -33 80 c-18 44 -32 82 -30 85 5 8
285 0 284 -8z m110 -112 c2 -93 -1 -120 -11 -120 -9 0 -9 -3 2 -10 10 -7 -7
-10 -57 -10 -78 0 -91 11 -54 44 11 10 21 37 24 68 4 28 10 54 14 57 5 3 8 12
9 19 1 6 2 19 3 27 0 8 16 21 34 29 17 8 32 15 33 15 0 1 2 -53 3 -119z m121
-14 c0 -2 -8 -10 -17 -17 -16 -13 -17 -12 -4 4 13 16 21 21 21 13z m60 -103
c0 -19 -21 -27 -32 -12 -7 11 -11 11 -15 2 -9 -24 -19 -13 -18 20 4 75 3 75
35 37 17 -19 30 -40 30 -47z"/>
<path d="M300 220 c0 -5 5 -10 10 -10 6 0 10 5 10 10 0 6 -4 10 -10 10 -5 0
-10 -4 -10 -10z"/>
<path d="M405 220 c-3 -5 1 -10 9 -10 9 0 16 5 16 10 0 6 -4 10 -9 10 -6 0
-13 -4 -16 -10z"/>
<path d="M230 421 c0 -5 5 -13 10 -16 6 -3 10 -2 10 4 0 5 -4 13 -10 16 -5 3
-10 2 -10 -4z"/>
<path d="M262 421 c4 -13 18 -16 19 -4 0 4 -5 9 -11 12 -7 2 -11 -2 -8 -8z"/>
<path d="M300 420 c0 -5 7 -10 16 -10 8 0 12 5 9 10 -3 6 -10 10 -16 10 -5 0
-9 -4 -9 -10z"/>
<path d="M340 420 c0 -5 5 -10 10 -10 6 0 10 5 10 10 0 6 -4 10 -10 10 -5 0
-10 -4 -10 -10z"/>
<path d="M380 420 c0 -5 5 -10 10 -10 6 0 10 5 10 10 0 6 -4 10 -10 10 -5 0
-10 -4 -10 -10z"/>
<path d="M420 420 c0 -5 5 -10 10 -10 6 0 10 5 10 10 0 6 -4 10 -10 10 -5 0
-10 -4 -10 -10z"/>
<path d="M450 406 c-12 -33 -12 -36 -1 -36 9 0 22 52 15 59 -2 2 -8 -8 -14
-23z"/>
<path d="M240 380 c0 -5 5 -10 10 -10 6 0 10 5 10 10 0 6 -4 10 -10 10 -5 0
-10 -4 -10 -10z"/>
<path d="M275 380 c3 -5 8 -10 11 -10 2 0 4 5 4 10 0 6 -5 10 -11 10 -5 0 -7
-4 -4 -10z"/>
<path d="M310 380 c0 -5 5 -10 10 -10 6 0 10 5 10 10 0 6 -4 10 -10 10 -5 0
-10 -4 -10 -10z"/>
<path d="M340 380 c0 -5 5 -10 10 -10 6 0 10 5 10 10 0 6 -4 10 -10 10 -5 0
-10 -4 -10 -10z"/>
<path d="M375 380 c4 -6 11 -8 16 -5 14 9 11 15 -7 15 -8 0 -12 -5 -9 -10z"/>
<path d="M410 380 c0 -5 5 -10 10 -10 6 0 10 5 10 10 0 6 -4 10 -10 10 -5 0
-10 -4 -10 -10z"/>
<path d="M255 350 c3 -5 8 -10 11 -10 2 0 4 5 4 10 0 6 -5 10 -11 10 -5 0 -7
-4 -4 -10z"/>
<path d="M285 350 c3 -5 8 -10 11 -10 2 0 4 5 4 10 0 6 -5 10 -11 10 -5 0 -7
-4 -4 -10z"/>
<path d="M310 350 c0 -5 5 -10 10 -10 6 0 10 5 10 10 0 6 -4 10 -10 10 -5 0
-10 -4 -10 -10z"/>
<path d="M340 350 c0 -5 5 -10 10 -10 6 0 10 5 10 10 0 6 -4 10 -10 10 -5 0
-10 -4 -10 -10z"/>
<path d="M370 350 c0 -5 5 -10 10 -10 6 0 10 5 10 10 0 6 -4 10 -10 10 -5 0
-10 -4 -10 -10z"/>
<path d="M400 350 c0 -5 5 -10 10 -10 6 0 10 5 10 10 0 6 -4 10 -10 10 -5 0
-10 -4 -10 -10z"/>
<path d="M430 350 c0 -5 5 -10 10 -10 6 0 10 5 10 10 0 6 -4 10 -10 10 -5 0
-10 -4 -10 -10z"/>
<path d="M265 320 c3 -5 8 -10 11 -10 2 0 4 5 4 10 0 6 -5 10 -11 10 -5 0 -7
-4 -4 -10z"/>
<path d="M290 320 c0 -5 5 -10 10 -10 6 0 10 5 10 10 0 6 -4 10 -10 10 -5 0
-10 -4 -10 -10z"/>
<path d="M340 320 c0 -5 5 -10 10 -10 6 0 10 5 10 10 0 6 -4 10 -10 10 -5 0
-10 -4 -10 -10z"/>
<path d="M370 319 c0 -5 5 -7 10 -4 6 3 10 8 10 11 0 2 -4 4 -10 4 -5 0 -10
-5 -10 -11z"/>
<path d="M420 320 c0 -5 5 -10 10 -10 6 0 10 5 10 10 0 6 -4 10 -10 10 -5 0
-10 -4 -10 -10z"/>
<path d="M325 290 c3 -5 8 -10 11 -10 2 0 4 5 4 10 0 6 -5 10 -11 10 -5 0 -7
-4 -4 -10z"/>
<path d="M410 289 c0 -5 5 -7 10 -4 6 3 10 8 10 11 0 2 -4 4 -10 4 -5 0 -10
-5 -10 -11z"/>
<path d="M984 350 c0 -85 2 -120 3 -77 2 42 2 112 0 155 -1 42 -3 7 -3 -78z"/>
<path d="M1090 423 c81 -12 82 -13 90 -143 l6 -95 2 96 c2 84 -1 100 -19 123
-17 21 -28 26 -62 25 -25 -1 -32 -3 -17 -6z"/>
<path d="M103 114 c9 -10 744 -14 812 -5 37 5 -106 9 -379 10 -242 0 -437 -2
-433 -5z"/>
<path d="M900 90 c0 -5 14 -10 30 -10 17 0 30 5 30 10 0 6 -13 10 -30 10 -16
0 -30 -4 -30 -10z"/>
<path d="M1470 535 c-7 -9 -13 -28 -14 -43 -1 -24 -5 -27 -47 -32 -60 -7 -92
-29 -118 -83 -26 -54 -26 -80 0 -134 26 -55 69 -85 117 -85 20 1 63 1 94 1 31
1 60 5 63 11 11 18 5 353 -7 367 -14 18 -73 16 -88 -2z m80 -134 c0 -70 3
-148 6 -173 5 -37 3 -46 -11 -51 -29 -12 -53 9 -48 40 5 27 5 27 -10 8 -8 -11
-13 -23 -11 -27 9 -15 -44 -31 -79 -24 -44 8 -93 62 -102 110 -16 81 43 156
120 156 24 0 46 -3 48 -7 3 -5 -17 -6 -44 -5 -44 4 -52 1 -78 -27 -37 -40 -48
-96 -27 -145 23 -56 103 -94 144 -67 8 5 -4 8 -32 7 -77 -2 -130 69 -107 144
23 76 106 106 156 55 l25 -24 0 69 c0 56 3 70 15 70 13 0 15 -23 15 -142 0
-79 4 -148 8 -155 4 -6 6 57 4 140 -2 84 -7 156 -12 161 -15 15 -39 -2 -49
-36 l-9 -33 -1 43 -1 42 40 0 40 0 0 -129z"/>
<path d="M1393 385 c-55 -23 -64 -107 -15 -145 54 -43 122 -5 122 68 0 62 -52
100 -107 77z m73 -27 l19 -23 -25 20 c-14 11 -27 21 -29 22 -2 2 0 3 6 3 5 0
18 -10 29 -22z m-86 -7 c-15 -30 -12 -72 8 -95 17 -21 17 -21 -5 -2 -14 12
-23 30 -23 48 0 28 15 68 26 68 2 0 0 -9 -6 -19z m56 -9 c11 -7 18 -33 15 -58
-2 -18 -32 -26 -47 -13 -17 14 -18 51 -2 67 14 14 19 14 34 4z m44 -76 c0 -2
-8 -10 -17 -17 -16 -13 -17 -12 -4 4 13 16 21 21 21 13z m-43 -32 c-3 -3 -12
-4 -19 -1 -8 3 -5 6 6 6 11 1 17 -2 13 -5z"/>
<path d="M2447 523 c-4 -3 -7 -19 -7 -35 0 -16 -6 -31 -15 -34 -10 -4 -15 -20
-15 -45 0 -26 5 -42 15 -45 11 -5 15 -23 15 -75 0 -37 5 -79 11 -93 21 -44 94
-55 147 -20 26 17 27 21 7 68 -10 24 -22 36 -35 36 -16 0 -20 7 -20 35 0 29 5
37 26 45 22 9 25 15 22 47 -2 28 -9 41 -25 48 -13 5 -23 17 -23 27 0 38 -12
48 -54 48 -24 0 -46 -3 -49 -7z m82 -47 l-2 -41 -7 35 -7 35 -2 -42 c-1 -40 1
-43 24 -43 16 0 25 -6 25 -16 0 -12 -7 -15 -25 -11 l-26 4 3 -86 3 -86 33 0
c17 -1 32 3 32 7 0 4 -7 8 -16 8 -14 0 -14 3 -4 15 16 19 26 10 34 -31 7 -29
4 -33 -25 -43 -46 -16 -66 -14 -89 9 -17 17 -20 32 -18 103 l2 82 5 -85 c6
-78 8 -85 32 -99 22 -12 31 -13 50 -3 24 12 24 12 -4 7 -15 -3 -36 -1 -47 5
-18 10 -20 21 -20 105 0 80 -2 93 -15 89 -9 -4 -15 0 -15 10 0 9 7 16 15 16
10 0 15 10 15 34 0 19 6 37 13 39 7 3 6 6 -5 6 -11 1 -18 -9 -21 -26 -3 -24
-4 -23 -5 7 -2 33 0 35 33 36 35 0 35 0 34 -40z m-79 -51 c-6 -8 -9 -23 -5
-35 3 -11 2 -20 -3 -20 -6 0 -12 16 -14 35 -3 29 -1 35 15 35 16 0 17 -3 7
-15z m130 -20 c0 -30 -3 -35 -22 -35 -21 1 -21 2 -5 11 9 5 17 16 17 24 0 8
-8 19 -17 24 -16 9 -16 10 5 11 19 0 22 -5 22 -35z m-53 -127 c-2 -18 -4 -4
-4 32 0 36 2 50 4 33 2 -18 2 -48 0 -65z"/>
<path d="M2208 460 c-41 -7 -86 -34 -95 -56 -3 -9 0 -26 7 -39 10 -19 10 -27
-4 -46 -22 -32 -20 -91 4 -122 25 -32 79 -50 116 -41 16 4 52 8 79 8 l50 1 -4
105 c-3 109 -16 151 -50 170 -40 21 -67 26 -103 20z m103 -49 c26 -27 29 -35
27 -93 l-1 -63 -6 68 c-8 90 -30 111 -109 105 -62 -5 -93 -28 -73 -52 10 -11
18 -13 31 -6 33 17 36 11 5 -9 -30 -18 -30 -18 -47 7 -9 14 -14 30 -11 35 10
17 68 36 111 37 35 0 49 -6 73 -29z m-16 -16 c22 -21 25 -33 25 -92 0 -37 5
-75 10 -83 8 -12 10 -10 10 9 0 33 12 18 15 -18 3 -34 -21 -49 -52 -32 -12 6
-33 6 -60 -2 -55 -14 -100 4 -119 49 -16 37 -3 88 24 99 13 5 13 2 -3 -15 -28
-31 -24 -79 10 -108 24 -20 35 -23 69 -17 23 4 51 7 62 7 16 0 20 5 17 18 -4
16 -7 16 -42 -3 -59 -33 -121 -6 -121 53 0 46 43 73 106 67 49 -5 51 -4 46 16
-13 54 -52 70 -104 43 -18 -9 -30 -11 -34 -5 -3 6 -4 12 -3 13 42 34 111 35
144 1z m-36 -49 c-2 -2 -24 -6 -48 -9 -29 -4 -40 -2 -30 4 13 8 88 14 78 5z"/>
<path d="M2180 290 c-12 -12 -17 -26 -13 -37 21 -57 123 -37 123 24 0 37 -77
46 -110 13z m67 4 c-3 -3 -12 -4 -19 -1 -8 3 -5 6 6 6 11 1 17 -2 13 -5z m-37
-8 c0 -2 -7 -7 -16 -10 -8 -3 -12 -2 -9 4 6 10 25 14 25 6z m45 -46 c-3 -5
-14 -10 -23 -9 -14 0 -13 2 3 9 27 11 27 11 20 0z"/>
<path d="M1651 446 c-8 -9 -11 -57 -9 -147 l3 -134 44 -3 c28 -2 47 1 52 10 5
7 9 45 9 84 0 51 4 75 15 84 13 11 15 4 16 -51 2 -110 8 -123 54 -127 53 -5
65 14 65 99 0 47 4 70 15 79 13 11 15 3 15 -58 0 -39 4 -83 10 -97 9 -23 14
-26 52 -23 l43 3 5 55 c3 30 2 86 -1 124 -6 60 -10 73 -34 94 -24 20 -35 23
-79 18 -58 -7 -51 -7 -172 0 -70 3 -94 1 -103 -10z m196 -29 c18 -22 18 -22
-3 -5 -16 14 -36 17 -95 15 l-74 -3 -1 -120 0 -119 3 118 c3 98 6 117 19 117
13 0 15 -6 9 -27 l-7 -28 29 28 c38 35 84 37 111 2 l19 -24 23 24 c29 31 79
33 105 5 14 -15 20 -44 25 -113 l7 -92 1 76 c2 85 -11 134 -38 149 -25 13 -67
13 -93 -2 -20 -10 -21 -10 -8 5 22 28 92 22 122 -9 21 -23 24 -36 27 -132 l4
-107 -41 -1 -41 -1 2 96 2 96 3 -80 c2 -44 8 -84 13 -89 12 -12 8 163 -3 182
-13 19 -65 14 -87 -8 -17 -17 -20 -32 -18 -102 l1 -83 6 82 c4 50 11 87 20 95
11 11 12 10 2 -9 -6 -12 -11 -58 -11 -102 0 -73 -8 -98 -25 -71 -4 6 -13 5
-25 -2 -24 -15 -31 -9 -23 22 6 22 7 23 14 4 5 -11 8 12 8 58 1 95 -10 128
-43 128 -31 0 -56 -10 -56 -22 0 -5 5 -6 11 -2 8 5 8 1 0 -14 -6 -11 -11 -56
-11 -100 l0 -79 -36 1 -35 2 -2 131 -2 132 87 0 c76 0 88 -3 105 -22z m-40
-69 c-3 -8 -6 -5 -6 6 -1 11 2 17 5 13 3 -3 4 -12 1 -19z"/>
<path d="M1717 353 c-4 -3 -6 -43 -5 -87 l1 -81 7 85 c6 93 6 93 -3 83z"/>
<path d="M2709 437 c-117 -78 -72 -266 67 -283 106 -13 190 106 149 212 -33
88 -139 123 -216 71z m149 -17 c35 -22 62 -72 62 -116 0 -21 -3 -25 -17 -18
-10 5 -57 10 -105 12 -97 4 -106 -3 -67 -52 26 -33 86 -37 114 -6 17 19 35 19
35 -1 0 -14 -62 -49 -88 -49 -61 0 -112 57 -112 126 0 52 53 104 107 104 60 0
96 -34 114 -105 6 -25 7 -26 8 -7 2 37 -29 91 -60 107 -15 8 -45 15 -66 15
-123 0 -158 -182 -45 -236 62 -29 152 7 152 60 0 15 3 17 12 8 18 -18 -21 -64
-70 -82 -89 -31 -172 33 -172 133 0 44 4 53 39 88 33 33 45 39 82 39 26 0 57
-8 77 -20z m-23 -170 c-10 -11 -29 -19 -44 -19 -26 2 -26 2 2 6 15 3 33 13 39
23 7 11 14 17 17 15 2 -3 -4 -14 -14 -25z"/>
<path d="M2755 388 c-24 -14 -44 -39 -45 -55 0 -9 22 -13 80 -13 50 0 80 4 80
11 0 18 -57 69 -77 69 -10 0 -27 -6 -38 -12z m63 -55 c-16 -2 -40 -2 -55 0
-16 2 -3 4 27 4 30 0 43 -2 28 -4z"/>
<path d="M94 275 c0 -50 1 -71 3 -48 2 23 2 64 0 90 -2 26 -3 8 -3 -42z"/>
</g>
</svg>
